<svg viewBox="0 0 960 680" xmlns="http://www.w3.org/2000/svg" font-family="Arial, sans-serif">
  <defs>
    <filter id="sh"><feDropShadow dx="2" dy="3" stdDeviation="4" flood-opacity="0.4"/></filter>
    <filter id="sh2"><feDropShadow dx="1" dy="2" stdDeviation="2" flood-opacity="0.3"/></filter>
    <linearGradient id="stmPcb" x1="0%" y1="0%" x2="100%" y2="100%"><stop offset="0%" stop-color="#1a4a2a"/><stop offset="100%" stop-color="#0d3018"/></linearGradient>
    <linearGradient id="lcdGrad" x1="0%" y1="0%" x2="0%" y2="100%"><stop offset="0%" stop-color="#5a9a5a"/><stop offset="100%" stop-color="#2a5a2a"/></linearGradient>
    <linearGradient id="keypadGrad" x1="0%" y1="0%" x2="0%" y2="100%"><stop offset="0%" stop-color="#3a3a3a"/><stop offset="100%" stop-color="#1a1a1a"/></linearGradient>
    <linearGradient id="servoGrad" x1="0%" y1="0%" x2="0%" y2="100%"><stop offset="0%" stop-color="#c8c8c8"/><stop offset="100%" stop-color="#888"/></linearGradient>
    <linearGradient id="espGrad" x1="0%" y1="0%" x2="0%" y2="100%"><stop offset="0%" stop-color="#1a4a1a"/><stop offset="100%" stop-color="#0d2e0d"/></linearGradient>
    <linearGradient id="usGrad" x1="0%" y1="0%" x2="0%" y2="100%"><stop offset="0%" stop-color="#1a3a5a"/><stop offset="100%" stop-color="#0d2035"/></linearGradient>
  </defs>
  <rect width="960" height="680" fill="#f0f0f0"/>
  <rect x="0" y="0" width="960" height="36" fill="#1e293b"/>
  <text x="480" y="14" text-anchor="middle" fill="white" font-size="11" font-weight="bold">Smart Vending Machine (Zephyr RTOS) — Circuit Diagram</text>
  <text x="480" y="28" text-anchor="middle" fill="#94a3b8" font-size="8.5">STM32 F446RE Nucleo · Yaswanth Chlliboina · github.com/Yaswanth-Ch-24</text>

  <!-- ══ STM32 CENTER ══ -->
  <rect x="330" y="130" width="270" height="390" rx="8" fill="url(#stmPcb)" filter="url(#sh)"/>
  <rect x="336" y="136" width="258" height="378" rx="6" fill="none" stroke="#2d6a3f" stroke-width="1.5"/>
  <rect x="390" y="133" width="50" height="18" rx="3" fill="#888" stroke="#555" stroke-width="1"/>
  <text x="415" y="145" text-anchor="middle" fill="white" font-size="7" font-weight="bold">USB</text>
  <rect x="383" y="330" width="80" height="75" rx="4" fill="#1a5c2e"/>
  <text x="423" y="372" text-anchor="middle" fill="white" font-size="20" font-weight="bold" font-style="italic">ST</text>
  <rect x="375" y="230" width="80" height="75" rx="3" fill="#111" stroke="#333" stroke-width="1.5"/>
  <text x="415" y="265" text-anchor="middle" fill="#aaa" font-size="7">STM32</text>
  <text x="415" y="277" text-anchor="middle" fill="#aaa" font-size="7">F446RE</text>
  <text x="415" y="289" text-anchor="middle" fill="#666" font-size="6">Zephyr RTOS</text>
  <!-- Left pins -->
  <g fill="#c0c0c0" stroke="#888" stroke-width="0.5">
    <rect x="335" y="160" width="9" height="9" rx="1"/><rect x="335" y="173" width="9" height="9" rx="1"/>
    <rect x="335" y="186" width="9" height="9" rx="1"/><rect x="335" y="199" width="9" height="9" rx="1"/>
    <rect x="335" y="212" width="9" height="9" rx="1"/><rect x="335" y="225" width="9" height="9" rx="1"/>
    <rect x="335" y="238" width="9" height="9" rx="1"/><rect x="335" y="251" width="9" height="9" rx="1"/>
    <rect x="335" y="264" width="9" height="9" rx="1"/><rect x="335" y="277" width="9" height="9" rx="1"/>
    <rect x="335" y="290" width="9" height="9" rx="1"/><rect x="335" y="303" width="9" height="9" rx="1"/>
    <rect x="335" y="316" width="9" height="9" rx="1"/>
  </g>
  <!-- Right pins -->
  <g fill="#c0c0c0" stroke="#888" stroke-width="0.5">
    <rect x="591" y="160" width="9" height="9" rx="1"/><rect x="591" y="173" width="9" height="9" rx="1"/>
    <rect x="591" y="186" width="9" height="9" rx="1"/><rect x="591" y="199" width="9" height="9" rx="1"/>
    <rect x="591" y="212" width="9" height="9" rx="1"/>
  </g>
  <g fill="#4ade80" font-size="7" font-family="'Courier New', monospace">
    <text x="348" y="167">PB3 ROW1</text><text x="348" y="180">PB4 ROW2</text>
    <text x="348" y="193">PB5 ROW3</text><text x="348" y="206">PB6 ROW4</text>
    <text x="348" y="219">PC7 COL1</text><text x="348" y="232">PA8 COL2</text>
    <text x="348" y="245">PA9 COL3</text><text x="348" y="258">PA10 COL4</text>
    <text x="348" y="271">PA0 SERVO</text>
    <text x="348" y="284">PA1 TRIG</text>
    <text x="348" y="297">PA4 ECHO</text>
    <text x="348" y="310">PB7 SDA</text>
    <text x="348" y="323">PB8 SCL</text>
  </g>
  <g fill="#4ade80" font-size="7" font-family="'Courier New', monospace" text-anchor="end">
    <text x="588" y="167">PA2 TX2</text>
    <text x="588" y="180">PA3 RX2</text>
  </g>
  <text x="465" y="510" text-anchor="middle" fill="#4ade80" font-size="8" font-weight="bold" font-family="'Courier New', monospace">NUCLEO-F446RE · ZEPHYR RTOS</text>
  <!-- Thread labels -->
  <rect x="340" y="520" width="248" height="70" rx="4" fill="#0d2a1a" stroke="#2d6a3f" stroke-width="1"/>
  <text x="464" y="535" text-anchor="middle" fill="#4ade80" font-size="7" font-weight="bold">Active Threads</text>
  <text x="364" y="549" fill="#86efac" font-size="6.5">keypad_thread (prio 5)</text>
  <text x="364" y="560" fill="#86efac" font-size="6.5">dispense_thread (prio 4)</text>
  <text x="464" y="549" fill="#86efac" font-size="6.5">verify_thread (prio 4)</text>
  <text x="464" y="560" fill="#86efac" font-size="6.5">wifi_thread (prio 6)</text>
  <text x="364" y="571" fill="#86efac" font-size="6.5">display_thread (prio 7)</text>
  <text x="464" y="571" fill="#86efac" font-size="6.5">msgq + semaphore sync</text>

  <!-- ══ 4x4 KEYPAD (top-left) ══ -->
  <g filter="url(#sh2)">
    <rect x="45" y="65" width="195" height="215" rx="6" fill="url(#keypadGrad)"/>
    <rect x="51" y="71" width="183" height="203" rx="4" fill="#222" stroke="#444" stroke-width="1" stroke-dasharray="3,2"/>
    <!-- 4x4 buttons -->
    <g fill="#555" stroke="#333" stroke-width="1">
      <rect x="62" y="82" width="30" height="25" rx="4"/><rect x="100" y="82" width="30" height="25" rx="4"/>
      <rect x="138" y="82" width="30" height="25" rx="4"/><rect x="176" y="82" width="30" height="25" rx="4"/>
      <rect x="62" y="115" width="30" height="25" rx="4"/><rect x="100" y="115" width="30" height="25" rx="4"/>
      <rect x="138" y="115" width="30" height="25" rx="4"/><rect x="176" y="115" width="30" height="25" rx="4"/>
      <rect x="62" y="148" width="30" height="25" rx="4"/><rect x="100" y="148" width="30" height="25" rx="4"/>
      <rect x="138" y="148" width="30" height="25" rx="4"/><rect x="176" y="148" width="30" height="25" rx="4"/>
      <rect x="62" y="181" width="30" height="25" rx="4"/><rect x="100" y="181" width="30" height="25" rx="4"/>
      <rect x="138" y="181" width="30" height="25" rx="4"/><rect x="176" y="181" width="30" height="25" rx="4"/>
    </g>
    <!-- Key labels -->
    <g fill="#ccc" font-size="9" text-anchor="middle" font-weight="bold">
      <text x="77" y="100">1</text><text x="115" y="100">2</text><text x="153" y="100">3</text><text x="191" y="100">A</text>
      <text x="77" y="133">4</text><text x="115" y="133">5</text><text x="153" y="133">6</text><text x="191" y="133">B</text>
      <text x="77" y="166">7</text><text x="115" y="166">8</text><text x="153" y="166">9</text><text x="191" y="166">C</text>
      <text x="77" y="199">*</text><text x="115" y="199">0</text><text x="153" y="199">#</text><text x="191" y="199">D</text>
    </g>
    <!-- Ribbon cable -->
    <g fill="#c0a000">
      <rect x="62" y="222" width="7" height="16" rx="1"/><rect x="76" y="222" width="7" height="16" rx="1"/>
      <rect x="90" y="222" width="7" height="16" rx="1"/><rect x="104" y="222" width="7" height="16" rx="1"/>
      <rect x="118" y="222" width="7" height="16" rx="1"/><rect x="132" y="222" width="7" height="16" rx="1"/>
      <rect x="146" y="222" width="7" height="16" rx="1"/><rect x="160" y="222" width="7" height="16" rx="1"/>
    </g>
    <text x="113" y="251" text-anchor="middle" fill="#888" font-size="7">R1 R2 R3 R4  C1 C2 C3 C4</text>
  </g>
  <text x="143" y="60" text-anchor="middle" fill="#1e293b" font-size="9" font-weight="bold">4×4 Matrix Keypad</text>

  <!-- ══ I2C LCD (bottom-left) ══ -->
  <g filter="url(#sh2)">
    <rect x="40" y="390" width="220" height="85" rx="6" fill="url(#lcdGrad)"/>
    <rect x="46" y="396" width="208" height="73" rx="4" fill="none" stroke="#4a8a4a" stroke-width="1" stroke-dasharray="3,2"/>
    <!-- LCD glass -->
    <rect x="55" y="403" width="150" height="55" rx="3" fill="#4a7a2a"/>
    <rect x="60" y="408" width="140" height="45" rx="2" fill="#5a8a3a"/>
    <!-- LCD text rows -->
    <rect x="65" y="413" width="125" height="13" rx="1" fill="#3a6a1a"/>
    <rect x="65" y="432" width="125" height="13" rx="1" fill="#3a6a1a"/>
    <!-- Character blocks -->
    <g fill="#8aff4a" font-size="7" font-family="'Courier New', monospace">
      <text x="68" y="423">Select Product</text>
      <text x="68" y="442">A1 A2 A3 B1 B2</text>
    </g>
    <!-- PCF8574 backpack -->
    <rect x="215" y="408" width="40" height="35" rx="3" fill="#111" stroke="#333" stroke-width="1.5"/>
    <text x="235" y="421" text-anchor="middle" fill="#888" font-size="6">PCF</text>
    <text x="235" y="432" text-anchor="middle" fill="#888" font-size="6">8574</text>
    <text x="235" y="443" text-anchor="middle" fill="#666" font-size="5.5">0x27</text>
    <!-- Header pins -->
    <g fill="#c0a000">
      <rect x="50" y="459" width="7" height="13" rx="1"/><rect x="64" y="459" width="7" height="13" rx="1"/>
      <rect x="78" y="459" width="7" height="13" rx="1"/><rect x="92" y="459" width="7" height="13" rx="1"/>
    </g>
    <text x="53" y="480" fill="#aaffaa" font-size="5.5" text-anchor="middle">GND</text>
    <text x="67" y="480" fill="#aaffaa" font-size="5.5" text-anchor="middle">VCC</text>
    <text x="81" y="480" fill="#aaffaa" font-size="5.5" text-anchor="middle">SDA</text>
    <text x="95" y="480" fill="#aaffaa" font-size="5.5" text-anchor="middle">SCL</text>
  </g>
  <text x="150" y="385" text-anchor="middle" fill="#1e293b" font-size="9" font-weight="bold">16×2 I2C LCD (PB7/PB8)</text>

  <!-- ══ SG90 SERVO (top-right) ══ -->
  <g filter="url(#sh2)">
    <rect x="720" y="65" width="160" height="90" rx="6" fill="url(#servoGrad)"/>
    <rect x="726" y="71" width="148" height="78" rx="4" fill="#aaa" stroke="#999" stroke-width="1"/>
    <rect x="732" y="78" width="90" height="62" rx="4" fill="#888" stroke="#777" stroke-width="1.5"/>
    <circle cx="776" cy="109" r="18" fill="#666" stroke="#555" stroke-width="2"/>
    <circle cx="776" cy="109" r="10" fill="#888"/>
    <rect x="776" y="84" width="5" height="20" rx="2" fill="#aaa" transform="rotate(-45 776 109)"/>
    <rect x="776" y="84" width="5" height="20" rx="2" fill="#aaa" transform="rotate(90 776 109)"/>
    <rect x="828" y="82" width="40" height="38" rx="3" fill="#ddd" stroke="#bbb" stroke-width="1"/>
    <line x1="832" y1="90" x2="845" y2="90" stroke="#f44" stroke-width="3"/>
    <line x1="832" y1="102" x2="845" y2="102" stroke="#555" stroke-width="3"/>
    <line x1="832" y1="114" x2="845" y2="114" stroke="#ee8" stroke-width="3"/>
    <text x="849" y="93" fill="#c00" font-size="6.5">5V</text>
    <text x="849" y="105" fill="#333" font-size="6.5">GND</text>
    <text x="849" y="117" fill="#886" font-size="6.5">SIG→PA0</text>
  </g>
  <text x="800" y="60" text-anchor="middle" fill="#1e293b" font-size="9" font-weight="bold">SG90 Servo (Dispenser)</text>

  <!-- ══ HC-SR04 (mid-right) ══ -->
  <g filter="url(#sh2)">
    <rect x="720" y="215" width="190" height="85" rx="6" fill="url(#usGrad)"/>
    <rect x="726" y="221" width="178" height="73" rx="4" fill="none" stroke="#4a7aaf" stroke-width="1" stroke-dasharray="3,2"/>
    <circle cx="775" cy="258" r="24" fill="#1a2a3a" stroke="#3a5a7a" stroke-width="2"/>
    <circle cx="775" cy="258" r="17" fill="#0d1a24" stroke="#2a4a6a" stroke-width="1.5"/>
    <circle cx="775" cy="258" r="9" fill="#1a3a4a"/>
    <circle cx="845" cy="258" r="24" fill="#1a2a3a" stroke="#3a5a7a" stroke-width="2"/>
    <circle cx="845" cy="258" r="17" fill="#0d1a24" stroke="#2a4a6a" stroke-width="1.5"/>
    <circle cx="845" cy="258" r="9" fill="#1a3a4a"/>
    <g fill="none" stroke="#60a5fa" stroke-width="1" opacity="0.6">
      <path d="M751,238 Q741,258 751,278"/><path d="M745,232 Q731,258 745,284"/>
    </g>
    <g fill="#c0a000">
      <rect x="730" y="293" width="7" height="12" rx="1"/><rect x="744" y="293" width="7" height="12" rx="1"/>
      <rect x="758" y="293" width="7" height="12" rx="1"/><rect x="772" y="293" width="7" height="12" rx="1"/>
    </g>
    <text x="733" y="315" fill="#93c5fd" font-size="5.5" text-anchor="middle">VCC</text>
    <text x="747" y="315" fill="#93c5fd" font-size="5.5" text-anchor="middle">TRIG</text>
    <text x="761" y="315" fill="#93c5fd" font-size="5.5" text-anchor="middle">ECHO</text>
    <text x="775" y="315" fill="#93c5fd" font-size="5.5" text-anchor="middle">GND</text>
  </g>
  <text x="815" y="210" text-anchor="middle" fill="#1e293b" font-size="9" font-weight="bold">HC-SR04 (Delivery Verify)</text>

  <!-- ══ ESP8266 (bottom-right) ══ -->
  <g filter="url(#sh2)">
    <rect x="720" y="375" width="180" height="115" rx="6" fill="url(#espGrad)"/>
    <rect x="726" y="381" width="168" height="103" rx="4" fill="none" stroke="#2a6a2a" stroke-width="1" stroke-dasharray="3,2"/>
    <rect x="736" y="390" width="85" height="65" rx="3" fill="#1a1a1a" stroke="#333" stroke-width="1.5"/>
    <text x="778" y="417" text-anchor="middle" fill="#666" font-size="8">ESP-01</text>
    <text x="778" y="430" text-anchor="middle" fill="#555" font-size="6.5">2.4GHz Wi-Fi</text>
    <path d="M821 395 Q845 395 850 410 Q855 428 842 435 Q829 440 823 428" fill="none" stroke="#4a8a4a" stroke-width="2.5"/>
    <circle cx="835" cy="455" r="5" fill="#00ff00" opacity="0.8"/>
    <circle cx="850" cy="455" r="5" fill="#ff4444" opacity="0.8"/>
    <text x="836" y="471" fill="#aaffaa" font-size="6.5">TX PWR</text>
    <g fill="#c0a000">
      <rect x="730" y="472" width="7" height="13" rx="1"/><rect x="744" y="472" width="7" height="13" rx="1"/>
      <rect x="758" y="472" width="7" height="13" rx="1"/><rect x="772" y="472" width="7" height="13" rx="1"/>
    </g>
    <text x="733" y="494" fill="#aaffaa" font-size="5.5" text-anchor="middle">VCC</text>
    <text x="747" y="494" fill="#aaffaa" font-size="5.5" text-anchor="middle">GND</text>
    <text x="761" y="494" fill="#aaffaa" font-size="5.5" text-anchor="middle">TX</text>
    <text x="775" y="494" fill="#aaffaa" font-size="5.5" text-anchor="middle">RX</text>
  </g>
  <text x="810" y="370" text-anchor="middle" fill="#1e293b" font-size="9" font-weight="bold">ESP8266 (Inventory Sync)</text>

  <!-- ══ WIRES ══ -->
  <!-- Keypad rows (blue shades) -->
  <polyline points="65,238 35,238 35,165 344,165" fill="none" stroke="#3b82f6" stroke-width="2.5"/>
  <polyline points="79,238 31,238 31,178 344,178" fill="none" stroke="#2563eb" stroke-width="2"/>
  <polyline points="93,238 27,238 27,191 344,191" fill="none" stroke="#1d4ed8" stroke-width="2"/>
  <polyline points="107,238 23,238 23,204 344,204" fill="none" stroke="#1e40af" stroke-width="2"/>
  <!-- Keypad cols (cyan shades) -->
  <polyline points="121,238 280,238 280,217 344,217" fill="none" stroke="#06b6d4" stroke-width="2"/>
  <polyline points="135,238 284,238 284,230 344,230" fill="none" stroke="#0891b2" stroke-width="2"/>
  <polyline points="149,238 288,238 288,243 344,243" fill="none" stroke="#0e7490" stroke-width="2"/>
  <polyline points="163,238 292,238 292,256 344,256" fill="none" stroke="#155e75" stroke-width="2"/>
  <!-- Servo (yellow) -->
  <polyline points="845,117 880,117 880,148 640,148 640,269 344,269" fill="none" stroke="#eab308" stroke-width="2.5"/>
  <!-- HC-SR04 TRIG/ECHO -->
  <polyline points="747,305 710,305 710,282 640,282 640,282 344,282" fill="none" stroke="#f97316" stroke-width="2.5"/>
  <polyline points="761,305 714,305 714,295 636,295 636,295 344,295" fill="none" stroke="#ea580c" stroke-width="2"/>
  <!-- LCD I2C -->
  <polyline points="81,471 81,500 305,500 305,308 344,308" fill="none" stroke="#8b5cf6" stroke-width="2.5"/>
  <polyline points="95,471 95,507 310,507 310,321 344,321" fill="none" stroke="#7c3aed" stroke-width="2"/>
  <!-- ESP8266 UART -->
  <polyline points="761,484 710,484 710,540 310,540 310,163 600,163" fill="none" stroke="#22d3ee" stroke-width="2.5"/>
  <polyline points="775,484 714,484 714,546 314,546 314,176 600,176" fill="none" stroke="#06b6d4" stroke-width="2"/>

  <!-- Junction dots -->
  <g fill="#3b82f6"><circle cx="344" cy="165" r="3.5"/><circle cx="344" cy="178" r="3.5"/><circle cx="344" cy="191" r="3.5"/><circle cx="344" cy="204" r="3.5"/></g>
  <g fill="#06b6d4"><circle cx="344" cy="217" r="3.5"/><circle cx="344" cy="230" r="3.5"/><circle cx="344" cy="243" r="3.5"/><circle cx="344" cy="256" r="3.5"/></g>
  <g fill="#eab308"><circle cx="344" cy="269" r="3.5"/></g>
  <g fill="#f97316"><circle cx="344" cy="282" r="3.5"/></g>
  <g fill="#ea580c"><circle cx="344" cy="295" r="3.5"/></g>
  <g fill="#8b5cf6"><circle cx="344" cy="308" r="3.5"/></g>
  <g fill="#7c3aed"><circle cx="344" cy="321" r="3.5"/></g>
  <g fill="#22d3ee"><circle cx="600" cy="163" r="3.5"/></g>
  <g fill="#06b6d4"><circle cx="600" cy="176" r="3.5"/></g>

  <!-- ══ LEGEND ══ -->
  <rect x="40" y="575" width="620" height="80" rx="6" fill="white" fill-opacity="0.85" stroke="#ddd" stroke-width="1"/>
  <text x="350" y="591" text-anchor="middle" fill="#1e293b" font-size="9" font-weight="bold">Wire Legend</text>
  <g font-size="7.5" fill="#374151">
    <line x1="55" y1="603" x2="88" y2="603" stroke="#3b82f6" stroke-width="2.5"/><text x="93" y="607">Keypad Rows PB3–PB6 (4 lines, output)</text>
    <line x1="55" y1="617" x2="88" y2="617" stroke="#06b6d4" stroke-width="2.5"/><text x="93" y="621">Keypad Cols PC7/PA8/PA9/PA10 (input pull-up)</text>
    <line x1="55" y1="631" x2="88" y2="631" stroke="#eab308" stroke-width="2.5"/><text x="93" y="635">TIM1 PWM → SG90 Servo (PA0)</text>
    <line x1="310" y1="603" x2="343" y2="603" stroke="#f97316" stroke-width="2.5"/><text x="348" y="607">HC-SR04 TRIG/ECHO (PA1/PA4)</text>
    <line x1="310" y1="617" x2="343" y2="617" stroke="#8b5cf6" stroke-width="2.5"/><text x="348" y="621">I2C1 → 16×2 LCD PCF8574 0x27 (PB7/PB8)</text>
    <line x1="310" y1="631" x2="343" y2="631" stroke="#22d3ee" stroke-width="2.5"/><text x="348" y="635">USART2 → ESP8266 Wi-Fi (PA2 TX / PA3 RX)</text>
  </g>
</svg>
